<svg xmlns="http://www.w3.org/2000/svg" version="1.1" xmlns:xlink="http://www.w3.org/1999/xlink" width="1000" height="1000"><g clip-path="url(#SvgjsClipPath1026)"><rect width="1000" height="1000" fill="#10a462"></rect><g transform="matrix(1.7994858611825193,0,0,1.7994858611825193,264.26735218509,150)"><svg xmlns="http://www.w3.org/2000/svg" version="1.1" xmlns:xlink="http://www.w3.org/1999/xlink" width="262" height="389"><svg width="262" height="389" viewBox="0 0 262 389" xmlns="http://www.w3.org/2000/svg">
    <g id="SMSU-Logo">
        <path id="Path" fill="#ffffff" stroke="none" d="M 181.5 385.399994 C 170.449997 383.850006 157.699997 376.350006 150.899994 367.450012 C 141.75 355.450012 139.25 346.5 139.25 325.25 C 139.25 313.600006 139.699997 309 141.800003 299.549988 C 147.449997 274.299988 160.850006 253.449997 179.75 240.600006 C 182.5 238.699997 182.800003 238.649994 183.649994 239.350006 C 185.149994 240.75 189.550003 248 192.100006 253.350006 C 194.5 258.299988 198.5 269.700012 198.5 271.450012 C 198.5 271.950012 197.899994 272.850006 197.199997 273.549988 C 196.5 274.200012 194.649994 276.450012 193.100006 278.5 C 182.350006 292.700012 176.449997 308.75 176.449997 324.100006 C 176.399994 330.649994 178.649994 338.25 181.800003 342.399994 C 185.399994 347.100006 191.149994 347.25 194.949997 342.700012 C 196.800003 340.450012 201.300003 331.399994 203.199997 326.149994 C 207.149994 314.950012 208.800003 300.799988 207.449997 289.25 C 206.949997 284.75 205.300003 276.049988 204.5 273.25 C 204.25 272.450012 203.550003 269.75 202.949997 267.25 C 200.699997 257.850006 197.25 249.050003 193.350006 243 C 184.850006 229.699997 175.199997 221 161.449997 214.050003 C 160.149994 213.449997 158.800003 212.300003 158.449997 211.600006 C 157.399994 209.600006 154.399994 207.050003 153.050003 207 C 152 207 151.899994 207.199997 152.100006 208.75 C 152.199997 209.699997 152.25 210.5 152.25 210.5 C 152.199997 210.5 151.050003 210.149994 149.699997 209.75 C 142.25 207.550003 131.25 206.600006 123 207.5 C 95.650002 210.300003 73.150002 226.850006 61.799999 252.399994 C 58.799999 259.149994 56.75 268.700012 55.900002 279.649994 C 55.099998 289.399994 56.299999 303.549988 58.549999 312 C 60.049999 317.700012 63 324.950012 65.300003 328.600006 C 69.349998 335.100006 75.800003 341.399994 81.5 344.450012 C 83.75 345.649994 85 346 87.150002 346 C 89.75 346 90.050003 345.899994 91.449997 344.149994 C 94.599998 340.350006 95.599998 336.100006 94.5 331.450012 C 93.800003 328.700012 92.400002 327 84.900002 320.200012 C 73.699997 310 71.800003 291.399994 80.650002 278.549988 C 82.550003 275.799988 85.949997 272 86.550003 272 C 86.800003 272 87 272.399994 87 272.899994 C 87.050003 274.399994 89 278.149994 91.349998 281.149994 C 92.599998 282.75 93.550003 284.149994 93.449997 284.25 C 93.349998 284.350006 92.25 284.049988 91.099998 283.649994 C 89.900002 283.25 88.800003 283.049988 88.699997 283.149994 C 88.150002 283.700012 91.849998 288.25 95.050003 291 C 98.400002 293.899994 101.5 295.299988 105.050003 295.600006 L 106.400002 295.700012 L 105.699997 298 C 104.199997 302.899994 105.25 307 109.150002 311.350006 C 118.349998 321.649994 122.199997 330.049988 122.849998 341.100006 C 123.300003 348.649994 121.800003 355.950012 118.400002 362.75 C 115.25 369.100006 108.650002 376.299988 102.75 379.799988 C 99.449997 381.75 93.300003 383.5 88.599998 383.799988 C 84.599998 384.100006 83.849998 384 79.5 382.549988 C 57.349998 375.100006 38.900002 358.5 28.200001 336.25 C 22.85 325.200012 20.049999 315.299988 18.549999 302.25 C 17.85 296.549988 17.85 278.399994 18.549999 271.799988 C 21.950001 237.600006 40 207.149994 67.75 188.649994 C 79.599998 180.75 90.050003 176 102.75 172.75 C 134 164.699997 166.899994 170 193.5 187.399994 C 206.899994 196.149994 217.100006 206.300003 226.300003 220.100006 C 234.75 232.75 239.850006 245.399994 244.25 264.25 C 248.25 281.75 249.149994 307.950012 246.199997 323.5 C 245.25 328.549988 242.75 337.899994 241.449997 341.100006 C 234.800003 358.149994 230.600006 365.549988 224.100006 371.850006 C 212.699997 382.950012 197.699997 387.700012 181.5 385.399994 Z"></path>
        <path id="path1" fill="#ffffff" stroke="none" d="M 124.5 300.399994 C 122.349998 299.799988 118.699997 296.350006 117.699997 294.049988 C 117.300003 293.149994 117 291.600006 117 290.700012 C 117 289.75 116.900002 289 116.75 289 C 116.650002 289 115.75 289.549988 114.75 290.200012 C 111.949997 292.149994 109.050003 292.350006 104.300003 291 C 99.75 289.700012 97.949997 288.899994 97.050003 287.799988 C 96.449997 287.100006 96.599998 287 98.400002 287 C 99.5 287 100.650002 286.700012 100.949997 286.299988 C 101.449997 285.700012 101.150002 285.399994 99.349998 284.600006 C 96.5 283.350006 93.650002 279.850006 92.650002 276.299988 C 92.199997 274.75 92 273.350006 92.150002 273.200012 C 92.300003 273.049988 93.449997 273.75 94.75 274.700012 C 98.699997 277.75 100 276.850006 96.25 273.649994 C 94.5 272.149994 93.800003 271.100006 93 268.649994 C 92.050003 265.649994 92.050003 265.350006 92.75 262.149994 C 93.199997 260.25 94.300003 257.549988 95.199997 256.049988 L 96.900002 253.350006 L 97.25 256.049988 C 97.849998 260.899994 98.050003 261 99.300003 257.299988 C 99.900002 255.399994 100.949997 253.350006 101.599998 252.649994 C 103.599998 250.5 108.25 248.050003 112.75 246.75 C 120.300003 244.550003 123 242.600006 123 239.399994 C 123 238.350006 123.150002 237.5 123.400002 237.5 C 124.099998 237.5 126.550003 241.949997 126.849998 243.699997 C 127 244.699997 127.300003 245.5 127.550003 245.5 C 127.75 245.5 128.949997 244.199997 130.149994 242.600006 C 131.949997 240.300003 133.149994 239.350006 136.300003 237.75 C 140.300003 235.75 147.550003 230.899994 149.050003 229.199997 C 150.399994 227.699997 153 223.050003 154.050003 220.300003 C 155.350006 216.850006 155.300003 212.300003 153.949997 210.050003 C 152.649994 207.850006 153.149994 207.449997 155 209.25 C 156.699997 210.850006 159 215.350006 159 216.949997 C 159 217.600006 159.350006 219.350006 159.800003 220.899994 C 161.149994 225.449997 161 234.649994 159.550003 240.75 C 158.899994 243.5 158.199997 246.75 158 248 C 157.550003 250.75 156.25 254.5 154.949997 256.799988 C 154.449997 257.75 154 258.950012 154 259.399994 C 154 259.899994 153.800003 260.5 153.600006 260.799988 C 153.350006 261.049988 152.899994 262.149994 152.600006 263.25 C 152.25 264.350006 151.199997 266.149994 150.199997 267.200012 C 148.850006 268.75 148.5 269.450012 148.75 270.399994 C 149.199997 272.200012 148.100006 274.899994 146.600006 275.700012 C 145.850006 276.100006 143.899994 277.700012 142.25 279.200012 C 139 282.200012 137.649994 282.75 138.25 280.899994 C 138.800003 279.100006 139.300003 273 139 272.450012 C 138.800003 272.149994 137.850006 272.350006 136.449997 272.950012 C 134.149994 274.049988 132.050003 274.299988 131.25 273.600006 C 129.600006 272.200012 120 269.799988 120 270.75 C 120 270.950012 120.699997 272.049988 121.5 273.25 C 122.349998 274.450012 123 275.75 123 276.149994 C 123 277.049988 124.349998 281.149994 125.599998 284 C 128.25 290.100006 128.899994 290.799988 130.399994 289.100006 C 131.350006 288 137.600006 285.299988 138.449997 285.549988 C 138.800003 285.700012 138.5 286.450012 137.75 287.5 C 136.600006 289.049988 136.5 289.549988 136.75 292.049988 C 137.100006 295.149994 136.300003 297.850006 134.399994 299.850006 C 133.449997 300.850006 132.850006 301 129.800003 300.950012 C 127.849998 300.950012 125.449997 300.700012 124.5 300.399994 Z"></path>
        <path id="path2" fill="#ffffff" stroke="none" d="M 234.699997 221.75 C 231.5 215.449997 225.449997 207.350006 221.050003 203.350006 L 218.350006 201 L 219.199997 198.350006 C 219.899994 196.050003 219.949997 194.899994 219.5 189.949997 C 218.899994 183.449997 218.050003 180.100006 216 176.100006 C 211.199997 166.649994 210 159.350006 211.800003 150.600006 C 213.449997 142.649994 216.449997 137.5 223.350006 130.649994 C 228.449997 125.600006 228.850006 124.649994 227 121.649994 C 226.100006 120.149994 225.800003 120 223.449997 120 C 220.600006 120 220.350006 119.25 222.800003 118.049988 C 225 116.950012 227.050003 117.149994 229.649994 118.649994 C 232.300003 120.25 234 122.950012 234 125.700012 C 234 126.950012 234.199997 127.399994 234.649994 127.200012 C 235.800003 126.799988 237 124.149994 237 122.200012 C 237 119.049988 233.850006 115.5 231 115.5 C 230.449997 115.5 230.100006 115.299988 230.25 115 C 230.399994 114.75 231.899994 114.5 233.5 114.5 C 235.949997 114.5 236.699997 114.700012 238 115.850006 C 240.850006 118.25 242 120.600006 242 124.149994 C 242 125.899994 241.75 127.549988 241.449997 127.850006 C 241.149994 128.149994 241 128.899994 241.100006 129.549988 C 241.25 130.649994 241.399994 130.600006 242.649994 128.649994 C 243.699997 127 244 125.899994 244 123.899994 C 244 121.25 243.199997 117.450012 242.550003 117 C 242.350006 116.850006 241.649994 115.950012 241 115 C 240.350006 114.049988 239.5 113.049988 239.149994 112.850006 C 238.300003 112.299988 237 109.200012 237 107.649994 C 237 105.850006 238.149994 103.5 240.199997 101.100006 C 241.75 99.200012 242 98.549988 242 96.299988 C 242 93.799988 241.149994 91 240.399994 91 C 239.350006 91 240.100006 87.899994 241.5 86.350006 C 243.800003 83.700012 243.600006 81.799988 240.600006 79 C 236.550003 75.200012 236.449997 74.850006 239.850006 76.200012 C 243.149994 77.549988 245.199997 79.899994 247.050003 84.399994 C 248.100006 86.950012 248.100006 87.149994 247.350006 88.5 C 246.149994 90.450012 246.300003 91.649994 247.800003 93.049988 C 249.350006 94.450012 250.949997 97.75 251 99.399994 C 251 100.049988 250.600006 101.200012 250.050003 101.899994 C 249.550003 102.649994 248.949997 103.75 248.800003 104.350006 C 248.300003 106 249.550003 105.399994 250.699997 103.5 C 251.149994 102.649994 252 101.75 252.600006 101.450012 C 254.149994 100.649994 257.899994 101.200012 259.149994 102.450012 C 260.350006 103.649994 260.049988 104.299988 258.600006 103.549988 C 257.049988 102.700012 256.200012 102.899994 254.550003 104.299988 C 252.649994 105.899994 252.600006 106.799988 254.399994 109.850006 C 257.549988 115.25 259 120.25 259 125.850006 C 259 135.5 254.899994 144.5 247.550003 151 C 245.800003 152.5 244.199997 153.800003 243.949997 153.899994 C 243.699997 154 242.899994 153.600006 242.199997 153.050003 C 240.899994 152.050003 240.899994 152.050003 239.100006 152.949997 C 236.649994 154.199997 235.25 155.75 233.949997 158.699997 C 232.050003 163.100006 233 166.850006 237.75 173.699997 C 246.25 185.800003 248.399994 202.149994 243.399994 216.649994 C 242.100006 220.449997 238.649994 227.5 238.050003 227.5 C 237.850006 227.5 236.350006 224.899994 234.699997 221.75 Z"></path>
        <path id="path3" fill="#ffffff" stroke="none" d="M 87.949997 139.399994 C 88.5 138.5 91 134.149994 93.5 129.75 C 96.050003 125.350006 101.449997 116 105.5 109 C 109.550003 102 115.849998 91.100006 119.5 84.75 C 123.150002 78.450012 127.25 71.299988 128.649994 68.899994 C 130 66.450012 131.300003 64.5 131.449997 64.5 C 131.75 64.5 132.399994 65.399994 134 68.200012 C 135.399994 70.700012 146 88.950012 147.899994 92.25 C 148.850006 93.899994 150.149994 96.149994 150.75 97.25 C 151.399994 98.350006 153.899994 102.75 156.350006 107 C 169.399994 129.649994 174.75 138.850006 175.399994 139.899994 L 176.100006 141 L 131.550003 141 L 87.050003 141 L 87.949997 139.399994 Z"></path>
        <path id="path4" fill="#ffffff" stroke="none" d="M 105.400002 97.399994 C 108.400002 91.549988 115.400002 77.700012 121 66.649994 C 126.599998 55.549988 131.300003 46.5 131.5 46.5 C 131.649994 46.5 135.050003 52.850006 138.949997 60.649994 C 142.899994 68.399994 149.949997 82.25 154.600006 91.399994 L 163.050003 108 L 160.550003 108 C 158.350006 108 158 107.850006 158 107 C 158 106.450012 157.800003 106 157.5 106 C 157.25 106 157 105.700012 157 105.350006 C 157 105 156.550003 104.200012 156 103.600006 C 155.449997 103 155 102.200012 155 101.75 C 155 101.350006 154.800003 101 154.5 101 C 154.25 101 154 100.549988 154 100 C 154 99.450012 153.800003 99 153.5 99 C 153.25 99 153 98.649994 153 98.200012 C 153 97.75 152.600006 97 152.149994 96.549988 C 151 95.5 150 93.700012 150 92.75 C 150 92.350006 149.800003 92 149.5 92 C 149.25 92 149 91.700012 149 91.350006 C 149 91 148.600006 90.25 148.149994 89.700012 C 147.100006 88.600006 145 84.649994 145 83.899994 C 145 83.600006 144.600006 83 144.149994 82.549988 C 143.100006 81.600006 142 79.75 142 78.950012 C 142 78.649994 141.600006 78 141.149994 77.549988 C 140.149994 76.649994 138 72.700012 138 71.799988 C 138 71.5 137.550003 70.899994 137 70.5 C 136.449997 70.100006 136 69.399994 136 68.899994 C 136 68.399994 135.850006 68 135.649994 68 C 135.25 68 134 65.600006 134 64.850006 C 134 64 132.550003 63 131.350006 63 C 130.350006 63 129.850006 63.600006 128.449997 66.399994 C 127.5 68.25 126.5 70.049988 126.150002 70.350006 C 125.849998 70.700012 124.949997 72.299988 124.199997 73.850006 C 123.400002 75.450012 122.400002 77.100006 121.900002 77.549988 C 121.400002 78 121 78.75 121 79.200012 C 121 79.649994 120.800003 80 120.5 80 C 120.25 80 120 80.399994 120 80.899994 C 120 81.399994 119.550003 82.100006 119 82.5 C 118.449997 82.899994 118 83.450012 118 83.75 C 118 84.600006 116.800003 87 116.400002 87 C 116.150002 87 116 87.399994 116 87.899994 C 116 88.399994 115.550003 89.100006 115 89.5 C 114.449997 89.899994 114 90.600006 114 91.100006 C 114 91.600006 113.800003 92 113.5 92 C 113.25 92 113 92.450012 113 93 C 113 93.549988 112.800003 94 112.5 94 C 112.25 94 112 94.399994 112 94.899994 C 112 95.399994 111.550003 96.100006 111 96.5 C 110.449997 96.899994 110 97.450012 110 97.75 C 110 98.600006 108.800003 101 108.400002 101 C 108.150002 101 108 101.399994 108 101.899994 C 108 102.399994 107.550003 103.100006 107 103.5 C 106.449997 103.899994 106 104.600006 106 105.100006 C 106 105.600006 105.800003 106 105.5 106 C 105.25 106 105 106.450012 105 107 C 105 107.850006 104.650002 108 102.449997 108 L 99.949997 108 L 105.400002 97.399994 Z"></path>
        <path id="path5" fill="#ffffff" stroke="none" d="M 113.150002 73.399994 C 115.349998 67.75 116.349998 65.149994 118.5 59.25 C 121.300003 51.600006 122.75 47.75 127.699997 34.350006 C 129.5 29.450012 131 25.25 131 25 C 131 23.700012 131.899994 24.75 132.600006 26.850006 C 133.300003 28.950012 148.850006 70.850006 149.75 73.149994 C 150.050003 73.850006 149.850006 74 148.699997 74 C 147.600006 74 147.100006 73.649994 146.649994 72.649994 C 146.300003 71.899994 146 71 146 70.649994 C 146 70.299988 145.850006 70 145.649994 70 C 145.199997 70 144 67.600006 144 66.700012 C 144 66.350006 143.850006 66 143.600006 65.899994 C 143.399994 65.850006 141.600006 62.450012 139.550003 58.399994 C 137.5 54.299988 135.649994 51 135.449997 51 C 135.199997 51 135 50.549988 135 50 C 135 49.450012 134.800003 49 134.5 49 C 134.25 49 134 48.549988 134 48 C 134 47.450012 133.800003 47 133.5 47 C 133.25 47 133 46.549988 133 46 C 133 45.200012 132.649994 45 131.5 45 C 130.350006 45 130 45.200012 130 46 C 130 46.549988 129.800003 47 129.5 47 C 129.25 47 129 47.299988 129 47.649994 C 129 48.5 127.599998 51.399994 127.050003 51.75 C 126.800003 51.850006 124.400002 56.450012 121.699997 61.850006 C 119 67.299988 116.599998 71.850006 116.400002 71.899994 C 116.199997 72 116 72.5 116 73.049988 C 116 73.799988 115.650002 74 114.449997 74 C 113.400002 74 112.949997 73.799988 113.150002 73.399994 Z"></path>
        <path id="path6" fill="#ffffff" stroke="none" d="M 136.899994 5.5 C 136.899994 8.5 134.5 10.899994 131.5 10.899994 C 128.5 10.899994 126.099998 8.5 126.099998 5.5 C 126.099998 2.5 128.5 0.100006 131.5 0.100006 C 134.5 0.100006 136.899994 2.5 136.899994 5.5 Z M 128.899994 10.200012"></path>
    </g>
</svg></svg></g></g><defs><clipPath id="SvgjsClipPath1026"><rect width="1000" height="1000" x="0" y="0" rx="350" ry="350"></rect></clipPath></defs></svg>