<?xml version="1.0" encoding="UTF-8"?>
<!-- Generated by Pixelmator Pro 3.6.18 -->
<svg width="3220" height="500" viewBox="0 0 3220 500" xmlns="http://www.w3.org/2000/svg">
    <g id="Text-black">
        <text id="SMSU" xml:space="preserve" x="384" y="478" font-family="Preuksa" font-size="600" font-weight="700" fill="#000000">SMSU</text>
        <text id="One-Stop" xml:space="preserve" x="2200" y="150" font-family="Preuksa" font-size="150" font-weight="700" fill="#000000">One Stop</text>
        <text id="Guide" xml:space="preserve" x="2186" y="480" font-family="Preuksa" font-size="350" font-weight="700" fill="#000000">Guide</text>
    </g>
    <g id="SMSU-Logo-ci">
        <path id="Path" fill="#10a462" stroke="none" d="M 211.559174 498.572357 C 197.260635 496.566681 180.762329 486.861816 171.963226 475.345337 C 160.123276 459.817535 156.888321 448.236359 156.888321 420.739166 C 156.888321 405.664246 157.470612 399.711914 160.187988 387.483734 C 167.498993 354.810608 184.838394 327.831055 209.294708 311.203369 C 212.853165 308.744781 213.241364 308.680054 214.341232 309.585876 C 216.282211 311.397461 221.975754 320.778839 225.275421 327.70166 C 228.380981 334.106873 233.556915 348.858337 233.556915 351.122803 C 233.556915 351.769775 232.780518 352.934387 231.874741 353.840149 C 230.968948 354.681274 228.575073 357.592712 226.569412 360.245361 C 212.659073 378.619995 205.024551 399.388428 205.024551 419.251099 C 204.959839 427.726685 207.871307 437.560974 211.947372 442.931 C 216.605713 449.012756 224.046127 449.206848 228.963272 443.319214 C 231.357147 440.407745 237.180084 428.697174 239.638641 421.903748 C 244.749878 407.411133 246.884964 389.101227 245.138077 374.155701 C 244.491089 368.332764 242.356018 357.075104 241.320831 353.451965 C 240.99733 352.416809 240.091553 348.923004 239.315155 345.688049 C 236.403687 333.524597 231.939438 322.137512 226.892899 314.308899 C 215.894028 297.098907 203.407074 285.841248 185.614777 276.848053 C 183.932587 276.071655 182.18573 274.583588 181.732819 273.677795 C 180.37413 271.089844 176.492172 267.790161 174.745316 267.725464 C 173.386627 267.725464 173.257217 267.984253 173.516022 269.989929 C 173.645416 271.219238 173.710114 272.254395 173.710114 272.254395 C 173.645416 272.254395 172.157349 271.801514 170.410446 271.283936 C 160.770264 268.437164 146.536438 267.207886 135.861069 268.372437 C 100.470581 271.995605 71.355919 293.411072 56.669186 326.472351 C 52.787231 335.206757 50.134563 347.564331 49.034679 361.733459 C 47.999489 374.349792 49.552269 392.659668 52.463737 403.593872 C 54.404713 410.969604 58.22197 420.350983 61.198139 425.074036 C 66.438774 433.484924 74.784981 441.637024 82.16069 445.58371 C 85.072159 447.136444 86.689636 447.589355 89.471703 447.589355 C 92.836067 447.589355 93.224266 447.459961 95.035835 445.195465 C 99.111893 440.278351 100.405876 434.778931 98.982491 428.761902 C 98.076706 425.20343 96.265129 423.003662 86.560242 414.204559 C 72.067604 401.00592 69.609039 376.937775 81.060806 360.310059 C 83.519379 356.751587 87.918915 351.834473 88.69532 351.834473 C 89.018814 351.834473 89.277603 352.352051 89.277603 352.999054 C 89.342308 354.940033 91.865578 359.79248 94.906441 363.674438 C 96.523918 365.744812 97.753212 367.556396 97.623802 367.685791 C 97.494408 367.815186 96.07103 367.427002 94.582939 366.909393 C 93.030167 366.391785 91.606781 366.132996 91.477379 366.26239 C 90.765694 366.974121 95.553429 372.861725 99.694191 376.420197 C 104.029037 380.172729 108.04039 381.984314 112.634041 382.372528 L 114.380913 382.501953 L 113.475121 385.478088 C 111.534142 391.818604 112.89283 397.123962 117.939377 402.752808 C 129.844025 416.080811 134.825867 426.950287 135.666962 441.24884 C 136.249268 451.018402 134.308289 460.464539 129.908737 469.263611 C 125.83268 477.480408 117.292381 486.797089 109.657867 491.326019 C 105.387711 493.849304 97.429718 496.1138 91.347977 496.501984 C 86.172043 496.890198 85.201553 496.760773 79.572723 494.884491 C 50.910954 485.244324 27.036936 463.76416 13.191298 434.973022 C 6.268477 420.6745 2.645319 407.864014 0.704341 390.977509 C -0.201447 383.601807 -0.201447 360.115967 0.704341 351.575684 C 5.103892 307.321411 28.460318 267.919556 64.368401 243.980835 C 79.702118 233.758362 93.224266 227.611938 109.657867 223.406494 C 150.094894 212.989899 192.666992 219.848022 227.08699 242.363342 C 244.426392 253.685715 257.625031 266.819672 269.529694 284.676666 C 280.463867 301.045593 287.063202 317.41449 292.756714 341.806091 C 297.932678 364.450836 299.09726 398.353241 295.279999 418.474701 C 294.05072 425.009308 290.815735 437.108063 289.133575 441.24884 C 280.528564 463.311279 275.093842 472.886749 266.682953 481.038879 C 251.931503 495.4021 232.521729 501.548553 211.559174 498.572357 Z"/>
        <path id="path1" fill="#10a462" stroke="none" d="M 137.802032 388.583649 C 135.019974 387.807251 130.296921 383.343018 129.002945 380.366821 C 128.485352 379.20224 128.097153 377.196594 128.097153 376.032013 C 128.097153 374.802704 127.967758 373.832214 127.773659 373.832214 C 127.644257 373.832214 126.479668 374.543884 125.185684 375.38501 C 121.562523 377.908264 117.809975 378.167084 111.663551 376.420197 C 105.775917 374.738037 103.446739 373.70282 102.282158 372.279419 C 101.50576 371.373657 101.69986 371.244263 104.029037 371.244263 C 105.452415 371.244263 106.940498 370.856079 107.32869 370.33844 C 107.975685 369.562073 107.587494 369.173889 105.258316 368.138672 C 101.570465 366.52121 97.882607 361.992249 96.588623 357.39859 C 96.006325 355.392944 95.747528 353.58136 95.941628 353.387268 C 96.135727 353.193146 97.623802 354.098938 99.305992 355.328247 C 104.417229 359.274902 106.099411 358.110291 101.246964 353.969543 C 98.982491 352.028564 98.076706 350.669891 97.041519 347.499634 C 95.812233 343.617676 95.812233 343.229492 96.718018 339.088715 C 97.300308 336.630157 98.723701 333.136383 99.888275 331.195404 L 102.088058 327.70166 L 102.540955 331.195404 C 103.317337 337.471252 103.576141 337.600647 105.193626 332.812866 C 105.970016 330.354309 107.32869 327.70166 108.169785 326.795868 C 110.757751 324.013794 116.774788 320.843536 122.597717 319.161377 C 132.36731 316.314575 135.861069 313.791321 135.861069 309.650574 C 135.861069 308.291901 136.055161 307.192017 136.378662 307.192017 C 137.284439 307.192017 140.454712 312.950226 140.842896 315.214722 C 141.037003 316.508667 141.425201 317.543884 141.748703 317.543884 C 142.007492 317.543884 143.560272 315.861694 145.113052 313.791321 C 147.442215 310.815155 148.994995 309.585876 153.07106 307.515503 C 158.247009 304.927521 167.628387 298.651672 169.569366 296.451904 C 171.316238 294.510925 174.680603 288.493927 176.039291 284.935486 C 177.721481 280.471222 177.656784 274.583588 175.909897 271.672119 C 174.227707 268.825378 174.874695 268.307739 177.26857 270.636932 C 179.468353 272.707306 182.444519 278.530243 182.444519 280.600586 C 182.444519 281.441711 182.897415 283.706177 183.479706 285.711853 C 185.226578 291.599487 185.032486 303.50415 183.156219 311.397461 C 182.315109 314.955902 181.409332 319.161377 181.150528 320.778839 C 180.568237 324.33728 178.886063 329.189758 177.203873 332.165894 C 176.556885 333.395203 175.974594 334.947998 175.974594 335.530273 C 175.974594 336.177246 175.715805 336.953674 175.457001 337.341827 C 175.133514 337.665344 174.551208 339.088715 174.163025 340.512115 C 173.710114 341.935486 172.351425 344.264648 171.057449 345.623352 C 169.310577 347.629028 168.857681 348.534851 169.181168 349.764099 C 169.763458 352.093292 168.340088 355.587036 166.399109 356.622253 C 165.428619 357.139832 162.905334 359.210205 160.770264 361.151184 C 156.564819 365.033142 154.817932 365.744812 155.59433 363.350952 C 156.30603 361.02179 156.953018 353.128479 156.564819 352.416809 C 156.30603 352.028564 155.076752 352.287384 153.265152 353.063782 C 150.288986 354.487122 147.571625 354.810608 146.536438 353.904846 C 144.401367 352.093292 131.979111 348.987701 131.979111 350.21698 C 131.979111 350.47583 132.884888 351.89917 133.92009 353.451965 C 135.019974 355.004761 135.861069 356.68692 135.861069 357.204529 C 135.861069 358.36908 137.607941 363.674438 139.225418 367.362305 C 142.65448 375.255615 143.49556 376.161377 145.436539 373.961609 C 146.665848 372.538239 154.75325 369.044464 155.853119 369.36795 C 156.30603 369.562073 155.917831 370.532593 154.947342 371.891235 C 153.459259 373.896912 153.329865 374.543884 153.653351 377.77887 C 154.106262 381.790222 153.07106 385.283997 150.612488 387.871948 C 149.383194 389.165955 148.606827 389.360046 144.660156 389.295349 C 142.136887 389.295349 139.031326 388.971863 137.802032 388.583649 Z"/>
        <path id="path2" fill="#10a462" stroke="none" d="M 280.39917 286.811737 C 276.258423 278.659607 268.42981 268.178345 262.736267 263.002441 L 259.242523 259.961548 L 260.342407 256.532501 C 261.248199 253.556335 261.312897 252.068237 260.730591 245.66301 C 259.954193 237.252106 258.85434 232.917267 256.20166 227.741333 C 249.990524 215.513153 248.437744 206.067078 250.766922 194.74472 C 252.901993 184.45752 256.783936 177.793518 265.712463 168.929718 C 272.311768 162.395111 272.829376 161.165802 270.435486 157.283844 C 269.270905 155.342865 268.882721 155.148773 265.841827 155.148773 C 262.153992 155.148773 261.830505 154.178284 265.000763 152.625488 C 267.847504 151.202148 270.500183 151.460907 273.864532 153.401886 C 277.29361 155.47226 279.493378 158.966034 279.493378 162.524506 C 279.493378 164.141998 279.752167 164.724243 280.334473 164.465485 C 281.822571 163.947845 283.375336 160.518799 283.375336 157.995575 C 283.375336 153.919464 279.299286 149.325836 275.61142 149.325836 C 274.899719 149.325836 274.446838 149.067047 274.64093 148.678864 C 274.835022 148.355347 276.776001 148.03186 278.846375 148.03186 C 282.016663 148.03186 282.987152 148.29068 284.669312 149.778748 C 288.357178 152.884308 289.845276 155.925171 289.845276 160.518799 C 289.845276 162.783295 289.521759 164.918335 289.133575 165.30658 C 288.745361 165.694733 288.55127 166.665222 288.680695 167.506317 C 288.874786 168.929718 289.068848 168.865021 290.68634 166.341736 C 292.045044 164.206665 292.433228 162.783295 292.433228 160.195313 C 292.433228 156.766266 291.398041 151.849121 290.556946 151.266815 C 290.298157 151.072723 289.392365 149.908142 288.55127 148.678864 C 287.710205 147.449554 286.610291 146.155579 286.15741 145.89679 C 285.057526 145.185089 283.375336 141.173767 283.375336 139.16806 C 283.375336 136.838898 284.863403 133.798035 287.516083 130.692474 C 289.521759 128.233917 289.845276 127.392792 289.845276 124.481323 C 289.845276 121.246368 288.745361 117.62323 287.774872 117.62323 C 286.416199 117.62323 287.386688 113.611847 289.198273 111.606201 C 292.174438 108.177155 291.915649 105.718536 288.033691 102.095398 C 282.79306 97.178284 282.663635 96.725372 287.063202 98.47226 C 291.333344 100.219116 293.986023 103.259979 296.379883 109.082916 C 297.738586 112.382599 297.738586 112.641357 296.768097 114.388245 C 295.215302 116.91153 295.409393 118.464294 297.350372 120.275879 C 299.356049 122.087494 301.426422 126.357605 301.491119 128.492676 C 301.491119 129.333771 300.973541 130.821869 300.261841 131.727631 C 299.614838 132.69812 298.83844 134.121521 298.644348 134.897919 C 297.997375 137.03299 299.614838 136.256592 301.102936 133.798035 C 301.685211 132.69812 302.785095 131.533539 303.561523 131.145386 C 305.567169 130.110168 310.419617 130.821869 312.037079 132.439362 C 313.589905 133.992126 313.20166 134.833191 311.325409 133.862701 C 309.319702 132.762848 308.219849 133.021637 306.084778 134.833191 C 303.62619 136.903595 303.561523 138.068176 305.890656 142.014832 C 309.966705 149.00235 311.843018 155.47226 311.843018 162.718597 C 311.843018 175.205536 306.537659 186.85141 297.026886 195.262299 C 294.762421 197.203278 292.692017 198.885468 292.36853 199.014862 C 292.045044 199.144257 291.009827 198.626678 290.104065 197.914978 C 288.421875 196.621002 288.421875 196.621002 286.092712 197.785583 C 282.922424 199.403046 281.11087 201.408722 279.42868 205.225983 C 276.970123 210.919525 278.199402 215.771973 284.345825 224.635773 C 295.344696 240.292999 298.12677 261.449646 291.65683 280.212402 C 289.97467 285.129547 285.510406 294.252136 284.734039 294.252136 C 284.47522 294.252136 282.534241 290.887787 280.39917 286.811737 Z"/>
        <path id="path3" fill="#10a462" stroke="none" d="M 90.506889 180.252075 C 91.218582 179.087494 94.453545 173.458649 97.688507 167.765137 C 100.988174 162.071594 107.975685 149.972839 113.216324 140.914948 C 118.45697 131.857056 126.60907 117.752625 131.332108 109.535797 C 136.055161 101.383728 141.360504 92.131714 143.172073 89.026154 C 144.918961 85.855896 146.601135 83.332611 146.795227 83.332611 C 147.183426 83.332611 148.024506 84.497192 150.094894 88.120392 C 151.906464 91.355347 165.622711 114.970551 168.081284 119.240692 C 169.310577 121.375763 170.992737 124.287231 171.769135 125.710632 C 172.610229 127.134003 175.845184 132.827545 179.015457 138.326965 C 195.901947 167.635712 202.824783 179.540405 203.665863 180.899078 L 204.571671 182.322449 L 146.924637 182.322449 L 89.342308 182.322449 L 90.506889 180.252075 Z"/>
        <path id="path4" fill="#10a462" stroke="none" d="M 113.086929 125.904724 C 116.968887 118.3349 126.026779 100.413239 133.273087 86.114685 C 140.519409 71.751434 146.601135 60.040894 146.85994 60.040894 C 147.054016 60.040894 151.453583 68.25769 156.500122 78.350769 C 161.611359 88.37915 170.733948 106.300842 176.750992 118.140808 L 187.685165 139.620972 L 184.450195 139.620972 C 181.603439 139.620972 181.150528 139.42688 181.150528 138.326965 C 181.150528 137.615295 180.891739 137.03299 180.50354 137.03299 C 180.180038 137.03299 179.856552 136.644806 179.856552 136.191895 C 179.856552 135.739014 179.274261 134.703827 178.562561 133.927429 C 177.850861 133.151031 177.26857 132.115875 177.26857 131.533539 C 177.26857 131.015961 177.009781 130.56308 176.621582 130.56308 C 176.298096 130.56308 175.974594 129.980743 175.974594 129.269073 C 175.974594 128.557404 175.715805 127.975098 175.327606 127.975098 C 175.004105 127.975098 174.680603 127.522186 174.680603 126.939911 C 174.680603 126.357605 174.163025 125.387115 173.580719 124.80481 C 172.092636 123.446136 170.79866 121.117004 170.79866 119.887695 C 170.79866 119.370117 170.539856 118.917206 170.151657 118.917206 C 169.828171 118.917206 169.504669 118.529022 169.504669 118.076111 C 169.504669 117.62323 168.987076 116.65274 168.40477 115.94104 C 167.046112 114.51767 164.328735 109.406403 164.328735 108.435913 C 164.328735 108.047729 163.811142 107.271332 163.228836 106.689026 C 161.870163 105.459778 160.446777 103.065887 160.446777 102.030701 C 160.446777 101.642487 159.929184 100.801422 159.346878 100.219116 C 158.052887 99.054535 155.270828 93.943298 155.270828 92.778687 C 155.270828 92.390503 154.688553 91.614105 153.976852 91.096527 C 153.265152 90.578949 152.682861 89.673126 152.682861 89.026154 C 152.682861 88.37915 152.48877 87.861572 152.229965 87.861572 C 151.712372 87.861572 150.094894 84.756012 150.094894 83.785522 C 150.094894 82.685638 148.218628 81.391632 146.665848 81.391632 C 145.371857 81.391632 144.724869 82.16803 142.913269 85.791168 C 141.68399 88.185059 140.390015 90.514221 139.937119 90.902435 C 139.54892 91.355347 138.384323 93.42569 137.413834 95.431396 C 136.378662 97.50177 135.084671 99.636841 134.437683 100.219116 C 133.790695 100.801422 133.273087 101.771912 133.273087 102.354218 C 133.273087 102.936493 133.014297 103.389374 132.626099 103.389374 C 132.302597 103.389374 131.979111 103.906982 131.979111 104.553955 C 131.979111 105.200958 131.39682 106.10675 130.68512 106.624359 C 129.973419 107.141937 129.391144 107.853638 129.391144 108.241821 C 129.391144 109.341736 127.838356 112.447266 127.320763 112.447266 C 126.997269 112.447266 126.803169 112.964874 126.803169 113.611847 C 126.803169 114.25885 126.220879 115.164642 125.509186 115.682251 C 124.797485 116.199829 124.215195 117.105621 124.215195 117.752625 C 124.215195 118.399628 123.956406 118.917206 123.568207 118.917206 C 123.244713 118.917206 122.921211 119.499512 122.921211 120.211182 C 122.921211 120.922852 122.662422 121.505157 122.274223 121.505157 C 121.950722 121.505157 121.627228 122.022766 121.627228 122.669739 C 121.627228 123.316742 121.044937 124.222534 120.333244 124.740143 C 119.621544 125.257721 119.039261 125.969421 119.039261 126.357605 C 119.039261 127.45752 117.486481 130.56308 116.968887 130.56308 C 116.645386 130.56308 116.451286 131.080658 116.451286 131.727631 C 116.451286 132.374634 115.868996 133.280457 115.157303 133.798035 C 114.44561 134.315613 113.863319 135.221405 113.863319 135.868408 C 113.863319 136.515411 113.604523 137.03299 113.216324 137.03299 C 112.89283 137.03299 112.569336 137.615295 112.569336 138.326965 C 112.569336 139.42688 112.11644 139.620972 109.269669 139.620972 L 106.034706 139.620972 L 113.086929 125.904724 Z"/>
        <path id="path5" fill="#10a462" stroke="none" d="M 123.115311 94.84906 C 125.962074 87.538055 127.256058 84.173706 130.038132 76.539185 C 133.661285 66.640228 135.537567 61.658386 141.94278 44.31897 C 144.271957 37.978455 146.212936 32.543701 146.212936 32.220215 C 146.212936 30.538055 147.377518 31.896729 148.283325 34.614105 C 149.189102 37.331482 169.310577 91.549438 170.475159 94.525574 C 170.863358 95.431396 170.604568 95.625488 169.11647 95.625488 C 167.6931 95.625488 167.046112 95.172577 166.463791 93.878601 C 166.01091 92.908112 165.622711 91.74353 165.622711 91.290619 C 165.622711 90.837708 165.428619 90.449524 165.169815 90.449524 C 164.587524 90.449524 163.034744 87.343964 163.034744 86.179413 C 163.034744 85.726501 162.840652 85.27359 162.517151 85.144196 C 162.258347 85.079498 159.929184 80.679962 157.27652 75.439301 C 154.62384 70.133942 152.229965 65.863831 151.971176 65.863831 C 151.647675 65.863831 151.388885 65.281525 151.388885 64.569824 C 151.388885 63.858154 151.130081 63.275848 150.741882 63.275848 C 150.418396 63.275848 150.094894 62.693542 150.094894 61.981873 C 150.094894 61.270203 149.836105 60.687897 149.447906 60.687897 C 149.124405 60.687897 148.800903 60.10556 148.800903 59.39389 C 148.800903 58.358734 148.348007 58.099915 146.85994 58.099915 C 145.371857 58.099915 144.918961 58.358734 144.918961 59.39389 C 144.918961 60.10556 144.660156 60.687897 144.271957 60.687897 C 143.948471 60.687897 143.624969 61.07605 143.624969 61.528961 C 143.624969 62.628845 141.813385 66.381409 141.1017 66.83432 C 140.778214 66.963715 137.672638 72.916046 134.178879 79.903564 C 130.68512 86.95575 127.579559 92.843414 127.320763 92.908112 C 127.061958 93.037506 126.803169 93.684509 126.803169 94.396179 C 126.803169 95.366669 126.350273 95.625488 124.797485 95.625488 C 123.438812 95.625488 122.856506 95.366669 123.115311 94.84906 Z"/>
        <path id="path6" fill="#10a462" stroke="none" d="M 153.847443 6.987518 C 153.847443 10.869476 150.741882 13.975006 146.85994 13.975006 C 142.977982 13.975006 139.872406 10.869476 139.872406 6.987518 C 139.872406 3.10556 142.977982 0 146.85994 0 C 150.741882 0 153.847443 3.10556 153.847443 6.987518 Z M 143.49556 13.069244"/>
    </g>
</svg>
